<?xml version="1.0" encoding="UTF-8" standalone="no"?>
<svg
   xmlns:dc="http://purl.org/dc/elements/1.1/"
   xmlns:cc="http://creativecommons.org/ns#"
   xmlns:rdf="http://www.w3.org/1999/02/22-rdf-syntax-ns#"
   xmlns:svg="http://www.w3.org/2000/svg"
   xmlns="http://www.w3.org/2000/svg"
   viewBox="0 0 485.06668 394.89334"
   height="394.89334"
   width="485.06668"
   xml:space="preserve"
   id="svg2"
   version="1.1"><metadata
     id="metadata8"><rdf:RDF><cc:Work
         rdf:about=""><dc:format>image/svg+xml</dc:format><dc:type
           rdf:resource="http://purl.org/dc/dcmitype/StillImage" /></cc:Work></rdf:RDF></metadata><defs
     id="defs6" /><g
     transform="matrix(1.3333333,0,0,-1.3333333,0,394.89333)"
     id="g10"><g
       transform="scale(0.1)"
       id="g12"><path
         id="path14"
         style="fill:#0e2b58;fill-opacity:1;fill-rule:nonzero;stroke:none"
         d="M 613.648,1139.15 H 809.527 V 797.301 h 360.563 v 341.849 h 195.88 V 248.352 H 1170.09 V 632.621 H 809.527 V 248.352 H 613.648 v 890.798" /><path
         id="path16"
         style="fill:#0e2b58;fill-opacity:1;fill-rule:nonzero;stroke:none"
         d="m 1489.48,1139.15 h 275.72 l 208.36,-612.58 h 2.49 l 197.12,612.58 h 275.72 V 248.352 h -183.4 V 879.641 H 2263 L 2044.67,248.352 H 1893.71 L 1675.38,873.41 h -2.5 V 248.352 h -183.4 v 890.798" /><path
         id="path18"
         style="fill:#0e2b58;fill-opacity:1;fill-rule:nonzero;stroke:none"
         d="m 2768.29,736.172 h 214.59 c 87.33,0 134.73,37.418 134.73,127.258 0,86.082 -47.4,123.5 -134.73,123.5 h -214.59 z m -195.88,402.978 h 480.33 c 159.7,0 260.75,-111.04 260.75,-245.779 0,-104.812 -42.42,-183.402 -140.98,-223.332 v -2.488 c 96.07,-24.949 123.52,-118.531 129.75,-208.352 3.75,-56.14 2.5,-160.949 37.43,-210.847 h -195.88 c -23.7,56.136 -21.21,142.226 -31.19,213.339 -13.72,93.571 -49.9,134.75 -148.46,134.75 H 2768.29 V 248.352 h -195.88 v 890.798" /><path
         id="path20"
         style="fill:#0e2b58;fill-opacity:1;fill-rule:nonzero;stroke:none"
         d="m 3424.51,248.352 h 195.879 v 890.797 H 3424.51 Z" /><path
         id="path22"
         style="fill:#0e2b58;fill-opacity:1;fill-rule:nonzero;stroke:none"
         d="m 606.23,137.859 h 23.672 V 84.0781 h 61.547 v 53.7809 h 23.672 V 2.64844 H 691.449 V 63.6211 H 629.902 V 2.64844 H 606.23 V 137.859" /><path
         id="path24"
         style="fill:#0e2b58;fill-opacity:1;fill-rule:nonzero;stroke:none"
         d="M 828.938,2.64844 H 807.727 V 16.2813 h -0.379 C 802.047,6.44141 790.305,0 779.508,0 753.945,0 742.961,12.8711 742.961,38.4414 v 62.1176 h 21.586 V 40.5195 c 0,-17.2304 7.008,-23.4804 18.75,-23.4804 17.992,0 24.051,11.5507 24.051,26.6992 v 56.8207 h 21.59 V 2.64844" /><path
         id="path26"
         style="fill:#0e2b58;fill-opacity:1;fill-rule:nonzero;stroke:none"
         d="m 854.121,100.559 h 20.453 V 86.1602 l 0.379,-0.3789 c 6.438,10.789 17.61,17.4177 30.492,17.4177 21.207,0 34.653,-11.3474 34.653,-33.3279 V 2.64844 H 918.512 V 64.1914 c -0.383,15.3399 -6.442,21.9688 -19.133,21.9688 -14.387,0 -23.672,-11.3711 -23.672,-25.75 V 2.64844 H 854.121 V 100.559" /><path
         id="path28"
         style="fill:#0e2b58;fill-opacity:1;fill-rule:nonzero;stroke:none"
         d="m 955.434,100.559 h 16.289 v 29.339 h 21.59 v -29.339 h 19.507 V 84.4492 H 993.313 V 32.1914 c 0,-8.9023 0.753,-13.4531 10.417,-13.4531 3.03,0 6.06,0 9.09,0.7617 V 2.82813 c -4.73,-0.36719 -9.28,-1.12891 -14.015,-1.12891 -22.535,0 -26.703,8.71098 -27.082,24.99998 v 57.75 h -16.289 v 16.1098" /><path
         id="path30"
         style="fill:#0e2b58;fill-opacity:1;fill-rule:nonzero;stroke:none"
         d="m 1098.04,60.2109 c -0.76,13.6407 -10.04,25.9493 -24.62,25.9493 -14.96,0 -25.19,-11.3711 -25.75,-25.9493 z m -50.37,-14.1914 c 0,-15.3476 8.33,-28.9804 26.32,-28.9804 12.5,0 20.07,5.4922 23.86,16.289 h 20.45 C 1113.57,11.9219 1095.39,0 1073.99,0 c -30.68,0 -47.92,21.3984 -47.92,51.5 0,27.8516 18.19,51.699 47.35,51.699 30.87,0 49.81,-27.8279 46.21,-57.1795 h -71.96" /><path
         id="path32"
         style="fill:#0e2b58;fill-opacity:1;fill-rule:nonzero;stroke:none"
         d="m 1138.56,100.559 h 20.27 V 81.6211 h 0.37 c 2.47,10.4102 15.35,21.5779 28.6,21.5779 4.92,0 6.25,-0.379 8.15,-0.558 V 81.8086 c -3.03,0.3828 -6.25,0.9414 -9.28,0.9414 -14.78,0 -26.52,-11.9297 -26.52,-33.5195 V 2.64844 h -21.59 V 100.559" /><path
         id="path34"
         style="fill:#0e2b58;fill-opacity:1;fill-rule:nonzero;stroke:none"
         d="m 1265.45,137.859 h 33.33 L 1336.09,32 h 0.37 l 36.37,105.859 h 32.95 V 2.64844 h -22.54 V 106.988 h -0.38 L 1345.37,2.64844 h -19.51 l -37.5,104.33956 h -0.38 V 2.64844 h -22.53 V 137.859" /><path
         id="path36"
         style="fill:#0e2b58;fill-opacity:1;fill-rule:nonzero;stroke:none"
         d="m 1500.84,60.2109 c -0.76,13.6407 -10.03,25.9493 -24.62,25.9493 -14.96,0 -25.18,-11.3711 -25.75,-25.9493 z m -50.37,-14.1914 c 0,-15.3476 8.32,-28.9804 26.32,-28.9804 12.5,0 20.07,5.4922 23.86,16.289 h 20.45 C 1516.37,11.9219 1498.19,0 1476.79,0 c -30.67,0 -47.92,21.3984 -47.92,51.5 0,27.8516 18.19,51.699 47.35,51.699 30.87,0 49.81,-27.8279 46.21,-57.1795 h -71.96" /><path
         id="path38"
         style="fill:#0e2b58;fill-opacity:1;fill-rule:nonzero;stroke:none"
         d="m 1585.3,17.0391 c 19.31,0 27.46,17.6093 27.46,34.6601 0,21.5821 -10.41,34.461 -27.07,34.461 -20.27,0 -27.46,-17.9883 -27.46,-35.6016 0,-16.8594 8.32,-33.5195 27.07,-33.5195 z m 48.3,-14.39066 h -20.46 V 15.8984 h -0.38 C 1607.08,4.73047 1594.77,0 1582.47,0 c -30.88,0 -45.84,22.9102 -45.84,52.2695 0,35.4102 21.02,50.9295 42.42,50.9295 12.31,0 25.95,-4.5388 32.58,-15.3396 h 0.38 v 49.9996 h 21.59 V 2.64844" /><path
         id="path40"
         style="fill:#0e2b58;fill-opacity:1;fill-rule:nonzero;stroke:none"
         d="m 1660.1,100.559 h 21.59 V 2.64844 h -21.59 z m 0,37.3 h 21.59 V 117.41 h -21.59 v 20.449" /><path
         id="path42"
         style="fill:#0e2b58;fill-opacity:1;fill-rule:nonzero;stroke:none"
         d="m 1773.74,67.7891 c -1.7,11.9414 -10.41,18.3711 -22.35,18.3711 -11.17,0 -26.89,-5.8711 -26.89,-35.6016 0,-16.2891 7.19,-33.5195 25.93,-33.5195 12.5,0 21.22,8.332 23.31,22.3398 h 21.58 C 1791.35,14.0117 1775.63,0 1750.43,0 c -30.67,0 -47.52,21.7813 -47.52,50.5586 0,29.543 16.1,52.6404 48.29,52.6404 22.72,0 42.04,-11.3474 44.12,-35.4099 h -21.58" /><path
         id="path44"
         style="fill:#0e2b58;fill-opacity:1;fill-rule:nonzero;stroke:none"
         d="m 1875.81,51.6992 c -6.63,-4.3594 -17.05,-4.1679 -26.52,-5.8789 -9.28,-1.5117 -17.61,-4.9219 -17.61,-16.2812 0,-9.6602 12.31,-12.5 19.89,-12.5 9.47,0 24.24,4.9218 24.24,18.5625 z m 21.59,-27.2773 c 0,-5.3008 1.13,-7.3828 5.1,-7.3828 1.33,0 3.03,0 5.32,0.3789 V 2.46094 C 1904.59,1.32031 1897.78,0 1894.18,0 1885.46,0 1879.21,3.03125 1877.5,11.9219 1868.99,3.58984 1855.16,0 1843.62,0 c -17.62,0 -33.53,9.46094 -33.53,28.5898 0,24.4297 19.5,28.4102 37.69,30.4883 15.53,2.8438 29.35,1.1328 29.35,13.8203 0,11.1797 -11.55,13.2618 -20.26,13.2618 -12.12,0 -20.64,-4.9219 -21.59,-15.5313 h -21.58 c 1.5,25.1914 22.91,32.5701 44.49,32.5701 19.13,0 39.21,-7.7576 39.21,-28.4099 V 24.4219" /><path
         id="path46"
         style="fill:#0e2b58;fill-opacity:1;fill-rule:nonzero;stroke:none"
         d="m 1923.72,2.64844 h 21.5898 v 135.211 H 1923.72 Z" /><path
         id="path48"
         style="fill:#0e2b58;fill-opacity:1;fill-rule:nonzero;stroke:none"
         d="m 2053.07,76.3203 h 38.82 c 14.96,0 23.11,7.3789 23.11,21.5781 0,17.2426 -11.19,20.6406 -23.49,20.6406 h -38.44 z m -23.67,61.5387 h 64.57 c 29.54,0 44.7,-13.629 44.7,-36.55 0,-25.9379 -18,-32.5707 -22.36,-34.0785 v -0.3789 c 8.15,-1.1407 20.08,-7.2032 20.08,-28.6016 0,-15.7187 2.28,-30.12109 7.38,-35.60156 h -25.37 c -3.6,5.87109 -3.6,13.24996 -3.6,19.88286 0,24.8085 -5.11,35.789 -26.89,35.789 h -34.84 V 2.64844 H 2029.4 V 137.859" /><path
         id="path50"
         style="fill:#0e2b58;fill-opacity:1;fill-rule:nonzero;stroke:none"
         d="m 2229.37,60.2109 c -0.76,13.6407 -10.04,25.9493 -24.62,25.9493 -14.96,0 -25.18,-11.3711 -25.76,-25.9493 z m -50.38,-14.1914 c 0,-15.3476 8.34,-28.9804 26.33,-28.9804 12.5,0 20.07,5.4922 23.86,16.289 h 20.45 C 2244.9,11.9219 2226.71,0 2205.32,0 c -30.69,0 -47.91,21.3984 -47.91,51.5 0,27.8516 18.17,51.699 47.34,51.699 30.87,0 49.81,-27.8279 46.2,-57.1795 h -71.96" /><path
         id="path52"
         style="fill:#0e2b58;fill-opacity:1;fill-rule:nonzero;stroke:none"
         d="m 2286.19,34.0781 c 1.14,-12.5 10.6,-17.039 22.15,-17.039 8.15,0 22.35,1.6992 21.78,12.8711 -0.56,11.3711 -16.29,12.6992 -32,16.289 -15.91,3.4102 -31.44,9.0899 -31.44,28.9805 0,21.3906 23.11,28.0193 40.91,28.0193 20.07,0 38.25,-8.3279 40.9,-30.0974 h -22.53 c -1.89,10.2187 -10.42,13.0586 -19.89,13.0586 -6.25,0 -17.79,-1.5118 -17.79,-10.0391 0,-10.6016 15.9,-12.1211 31.8,-15.7109 15.73,-3.6016 31.63,-9.2891 31.63,-28.6016 C 2351.71,8.51953 2328.23,0 2307.96,0 c -24.62,0 -42.98,10.9805 -43.36,34.0781 h 21.59" /><path
         id="path54"
         style="fill:#0e2b58;fill-opacity:1;fill-rule:nonzero;stroke:none"
         d="m 2437.88,60.2109 c -0.77,13.6407 -10.04,25.9493 -24.62,25.9493 -14.96,0 -25.19,-11.3711 -25.76,-25.9493 z M 2387.5,46.0195 c 0,-15.3476 8.34,-28.9804 26.32,-28.9804 12.5,0 20.07,5.4922 23.86,16.289 h 20.46 C 2453.4,11.9219 2435.22,0 2413.82,0 c -30.68,0 -47.91,21.3984 -47.91,51.5 0,27.8516 18.18,51.699 47.35,51.699 30.87,0 49.8,-27.8279 46.2,-57.1795 h -71.96" /><path
         id="path56"
         style="fill:#0e2b58;fill-opacity:1;fill-rule:nonzero;stroke:none"
         d="m 2538.81,51.6992 c -6.63,-4.3594 -17.05,-4.1679 -26.51,-5.8789 -9.29,-1.5117 -17.62,-4.9219 -17.62,-16.2812 0,-9.6602 12.32,-12.5 19.89,-12.5 9.47,0 24.24,4.9218 24.24,18.5625 z m 21.59,-27.2773 c 0,-5.3008 1.14,-7.3828 5.11,-7.3828 1.33,0 3.03,0 5.31,0.3789 V 2.46094 C 2567.59,1.32031 2560.78,0 2557.18,0 2548.47,0 2542.22,3.03125 2540.51,11.9219 2531.99,3.58984 2518.17,0 2506.62,0 2489,0 2473.1,9.46094 2473.1,28.5898 c 0,24.4297 19.5,28.4102 37.69,30.4883 15.52,2.8438 29.34,1.1328 29.34,13.8203 0,11.1797 -11.55,13.2618 -20.26,13.2618 -12.12,0 -20.64,-4.9219 -21.58,-15.5313 h -21.6 c 1.52,25.1914 22.91,32.5701 44.51,32.5701 19.13,0 39.2,-7.7576 39.2,-28.4099 V 24.4219" /><path
         id="path58"
         style="fill:#0e2b58;fill-opacity:1;fill-rule:nonzero;stroke:none"
         d="m 2586.16,100.559 h 20.25 V 81.6211 h 0.38 c 2.46,10.4102 15.34,21.5779 28.6,21.5779 4.93,0 6.25,-0.379 8.14,-0.558 V 81.8086 c -3.03,0.3828 -6.25,0.9414 -9.28,0.9414 -14.76,0 -26.51,-11.9297 -26.51,-33.5195 V 2.64844 h -21.58 V 100.559" /><path
         id="path60"
         style="fill:#0e2b58;fill-opacity:1;fill-rule:nonzero;stroke:none"
         d="m 2717.99,67.7891 c -1.7,11.9414 -10.41,18.3711 -22.34,18.3711 -11.17,0 -26.89,-5.8711 -26.89,-35.6016 0,-16.2891 7.19,-33.5195 25.94,-33.5195 12.5,0 21.21,8.332 23.29,22.3398 h 21.59 C 2735.61,14.0117 2719.89,0 2694.7,0 c -30.67,0 -47.53,21.7813 -47.53,50.5586 0,29.543 16.1,52.6404 48.29,52.6404 22.73,0 42.04,-11.3474 44.12,-35.4099 h -21.59" /><path
         id="path62"
         style="fill:#0e2b58;fill-opacity:1;fill-rule:nonzero;stroke:none"
         d="m 2759.66,137.859 h 21.59 V 87.6797 h 0.38 c 5.3,8.8906 16.47,15.5193 29.35,15.5193 21.21,0 34.66,-11.3474 34.66,-33.3279 V 2.64844 h -21.59 V 64.1914 c -0.38,15.3399 -6.45,21.9688 -19.13,21.9688 -14.4,0 -23.67,-11.3711 -23.67,-25.75 V 2.64844 h -21.59 V 137.859" /><path
         id="path64"
         style="fill:#0e2b58;fill-opacity:1;fill-rule:nonzero;stroke:none"
         d="m 2928.96,2.64844 h 23.668 v 135.211 h -23.668 z" /><path
         id="path66"
         style="fill:#0e2b58;fill-opacity:1;fill-rule:nonzero;stroke:none"
         d="m 2981.04,100.559 h 20.45 V 86.1602 l 0.38,-0.3789 c 6.44,10.789 17.61,17.4177 30.49,17.4177 21.21,0 34.66,-11.3474 34.66,-33.3279 V 2.64844 h -21.6 V 64.1914 c -0.38,15.3399 -6.43,21.9688 -19.13,21.9688 -14.39,0 -23.67,-11.3711 -23.67,-25.75 V 2.64844 h -21.58 V 100.559" /><path
         id="path68"
         style="fill:#0e2b58;fill-opacity:1;fill-rule:nonzero;stroke:none"
         d="m 3108.48,34.0781 c 1.14,-12.5 10.61,-17.039 22.16,-17.039 8.14,0 22.34,1.6992 21.78,12.8711 -0.57,11.3711 -16.29,12.6992 -32,16.289 -15.91,3.4102 -31.44,9.0899 -31.44,28.9805 0,21.3906 23.1,28.0193 40.91,28.0193 20.07,0 38.25,-8.3279 40.9,-30.0974 h -22.53 c -1.9,10.2187 -10.42,13.0586 -19.9,13.0586 -6.25,0 -17.79,-1.5118 -17.79,-10.0391 0,-10.6016 15.9,-12.1211 31.81,-15.7109 15.72,-3.6016 31.63,-9.2891 31.63,-28.6016 C 3174.01,8.51953 3150.52,0 3130.26,0 c -24.62,0 -42.99,10.9805 -43.36,34.0781 h 21.58" /><path
         id="path70"
         style="fill:#0e2b58;fill-opacity:1;fill-rule:nonzero;stroke:none"
         d="m 3183.1,100.559 h 16.29 v 29.339 h 21.59 v -29.339 h 19.5 V 84.4492 h -19.5 V 32.1914 c 0,-8.9023 0.75,-13.4531 10.41,-13.4531 3.03,0 6.07,0 9.09,0.7617 V 2.82813 c -4.73,-0.36719 -9.27,-1.12891 -14.01,-1.12891 -22.54,0 -26.7,8.71098 -27.08,24.99998 v 57.75 h -16.29 v 16.1098" /><path
         id="path72"
         style="fill:#0e2b58;fill-opacity:1;fill-rule:nonzero;stroke:none"
         d="m 3259.04,100.559 h 21.58 V 2.64844 h -21.58 z m 0,37.3 h 21.58 V 117.41 h -21.58 v 20.449" /><path
         id="path74"
         style="fill:#0e2b58;fill-opacity:1;fill-rule:nonzero;stroke:none"
         d="m 3296.72,100.559 h 16.29 v 29.339 h 21.59 v -29.339 h 19.51 V 84.4492 H 3334.6 V 32.1914 c 0,-8.9023 0.76,-13.4531 10.41,-13.4531 3.03,0 6.07,0 9.1,0.7617 V 2.82813 c -4.74,-0.36719 -9.28,-1.12891 -14.02,-1.12891 -22.54,0 -26.7,8.71098 -27.08,24.99998 v 57.75 h -16.29 v 16.1098" /><path
         id="path76"
         style="fill:#0e2b58;fill-opacity:1;fill-rule:nonzero;stroke:none"
         d="m 3458.08,2.64844 h -21.21 V 16.2813 h -0.38 C 3431.19,6.44141 3419.45,0 3408.65,0 3383.08,0 3372.1,12.8711 3372.1,38.4414 v 62.1176 h 21.59 V 40.5195 c 0,-17.2304 7.01,-23.4804 18.75,-23.4804 17.98,0 24.05,11.5507 24.05,26.6992 v 56.8207 h 21.59 V 2.64844" /><path
         id="path78"
         style="fill:#0e2b58;fill-opacity:1;fill-rule:nonzero;stroke:none"
         d="m 3473.41,100.559 h 16.29 v 29.339 h 21.59 v -29.339 h 19.51 V 84.4492 h -19.51 V 32.1914 c 0,-8.9023 0.76,-13.4531 10.41,-13.4531 3.03,0 6.07,0 9.1,0.7617 V 2.82813 c -4.74,-0.36719 -9.28,-1.12891 -14.02,-1.12891 -22.54,0 -26.7,8.71098 -27.08,24.99998 v 57.75 h -16.29 v 16.1098" /><path
         id="path80"
         style="fill:#0e2b58;fill-opacity:1;fill-rule:nonzero;stroke:none"
         d="m 3616.01,60.2109 c -0.76,13.6407 -10.04,25.9493 -24.62,25.9493 -14.96,0 -25.18,-11.3711 -25.76,-25.9493 z m -50.38,-14.1914 c 0,-15.3476 8.34,-28.9804 26.33,-28.9804 12.5,0 20.07,5.4922 23.86,16.289 h 20.45 C 3631.54,11.9219 3613.35,0 3591.96,0 c -30.69,0 -47.91,21.3984 -47.91,51.5 0,27.8516 18.17,51.699 47.34,51.699 30.87,0 49.81,-27.8279 46.2,-57.1795 h -71.96" /><path
         id="path82"
         style="fill:#4fbe37;fill-opacity:1;fill-rule:nonzero;stroke:none"
         d="m 2616.9,2864.07 c 105.88,19.14 207.25,-51.22 226.38,-157.11 19.11,-105.91 -51.24,-207.25 -157.1,-226.39 -105.91,-19.1 -207.29,51.23 -226.39,157.11 -19.13,105.91 51.2,207.26 157.11,226.39" /><path
         id="path84"
         style="fill:#4fbe37;fill-opacity:1;fill-rule:nonzero;stroke:none"
         d="m 1679.69,1030.87 c -40.37,36.36 -43.59,98.58 -7.24,138.94 36.4,40.4 98.61,43.63 138.96,7.27 40.39,-36.4 43.62,-98.6 7.25,-138.95 -36.37,-40.419 -98.6,-43.642 -138.97,-7.26" /><path
         id="path86"
         style="fill:#4fbe37;fill-opacity:1;fill-rule:nonzero;stroke:none"
         d="m 1891.19,1191.06 c -48.47,43.64 -52.36,118.32 -8.7,166.79 43.68,48.46 118.35,52.33 166.81,8.68 48.46,-43.67 52.35,-118.34 8.68,-166.8 -43.66,-48.46 -118.35,-52.35 -166.79,-8.67" /><path
         id="path88"
         style="fill:#4fbe37;fill-opacity:1;fill-rule:nonzero;stroke:none"
         d="m 2351.92,1668.46 c -76.8,69.18 -82.95,187.52 -13.77,264.32 69.2,76.79 187.52,82.95 264.34,13.76 76.77,-69.2 82.94,-187.54 13.73,-264.3 -69.16,-76.8 -187.51,-82.96 -264.3,-13.78" /><path
         id="path90"
         style="fill:#4fbe37;fill-opacity:1;fill-rule:nonzero;stroke:none"
         d="m 2284.42,1356.7 c -74.63,-31.18 -160.41,4.07 -191.61,78.68 -31.16,74.65 4.07,160.43 78.71,191.61 74.63,31.16 160.42,-4.06 191.58,-78.7 31.18,-74.63 -4.04,-160.41 -78.68,-191.59" /><path
         id="path92"
         style="fill:#4fbe37;fill-opacity:1;fill-rule:nonzero;stroke:none"
         d="m 2430.68,2810.61 c -28.33,-47.25 -89.6,-62.56 -136.86,-34.22 -47.22,28.34 -62.55,89.61 -34.22,136.84 28.34,47.22 89.62,62.55 136.85,34.2 47.22,-28.33 62.56,-89.59 34.23,-136.82" /><path
         id="path94"
         style="fill:#4fbe37;fill-opacity:1;fill-rule:nonzero;stroke:none"
         d="m 2651.89,2001.18 c -117.08,29.22 -188.27,147.83 -159.06,264.88 29.26,117.05 147.85,188.25 264.88,159.01 117.08,-29.25 188.27,-147.82 159.02,-264.86 -29.21,-117.05 -147.81,-188.26 -264.84,-159.03" /><path
         id="path96"
         style="fill:#4fbe37;fill-opacity:1;fill-rule:nonzero;stroke:none"
         d="m 1312.3,899.52 c 9.92,32.179 44.06,50.21 76.24,40.281 32.19,-9.942 50.22,-44.09 40.3,-76.27 -9.95,-32.172 -44.08,-50.211 -76.26,-40.261 -32.18,9.921 -50.21,44.05 -40.28,76.25" /><path
         id="path98"
         style="fill:#4fbe37;fill-opacity:1;fill-rule:nonzero;stroke:none"
         d="m 1574.54,904.539 c -37.09,-15.527 -79.72,1.992 -95.22,39.09 -15.48,37.082 2.03,79.701 39.1,95.211 37.11,15.49 79.73,-2.03 95.22,-39.11 15.49,-37.082 -2.01,-79.718 -39.1,-95.191" /><path
         id="path100"
         style="fill:#4fbe37;fill-opacity:1;fill-rule:nonzero;stroke:none"
         d="m 1938.1,2801.96 c -19.33,-32.21 -61.1,-42.66 -93.31,-23.34 -32.21,19.33 -42.66,61.11 -23.34,93.3 19.34,32.21 61.11,42.68 93.32,23.36 32.21,-19.33 42.65,-61.12 23.33,-93.32" /><path
         id="path102"
         style="fill:#4fbe37;fill-opacity:1;fill-rule:nonzero;stroke:none"
         d="m 2166.77,2832.31 c -20.49,-34.17 -64.8,-45.26 -98.97,-24.76 -34.17,20.5 -45.26,64.81 -24.77,98.97 20.51,34.16 64.83,45.26 98.99,24.75 34.17,-20.48 45.24,-64.8 24.75,-98.96" /><path
         id="path104"
         style="fill:#4fbe37;fill-opacity:1;fill-rule:nonzero;stroke:none"
         d="m 1502.17,2726.93 c 37.72,-39.68 36.1,-102.39 -3.56,-140.1 -39.68,-37.7 -102.39,-36.09 -140.09,3.58 -37.69,39.66 -36.11,102.39 3.57,140.07 39.65,37.71 102.4,36.12 140.08,-3.55" /><path
         id="path106"
         style="fill:#4fbe37;fill-opacity:1;fill-rule:nonzero;stroke:none"
         d="m 1263.35,2577.02 c 44.49,-46.79 42.6,-120.81 -4.19,-165.27 -46.81,-44.48 -120.81,-42.59 -165.3,4.2 -44.46,46.82 -42.58,120.8 4.24,165.26 46.79,44.49 120.77,42.6 165.25,-4.19" /><path
         id="path108"
         style="fill:#4fbe37;fill-opacity:1;fill-rule:nonzero;stroke:none"
         d="m 775.254,2152.54 c 64.351,-67.7 61.605,-174.74 -6.07,-239.08 -67.735,-64.34 -174.754,-61.6 -239.09,6.08 -64.317,67.72 -61.614,174.74 6.101,239.08 67.688,64.33 174.723,61.61 239.059,-6.08" /><path
         id="path110"
         style="fill:#4fbe37;fill-opacity:1;fill-rule:nonzero;stroke:none"
         d="m 876.418,2428.66 c 69.402,22.87 144.222,-14.87 167.112,-84.28 22.84,-69.44 -14.88,-144.24 -84.3,-167.12 -69.433,-22.85 -144.238,14.88 -167.089,84.3 -22.879,69.4 14.855,144.23 84.277,167.1" /><path
         id="path112"
         style="fill:#4fbe37;fill-opacity:1;fill-rule:nonzero;stroke:none"
         d="m 1635.58,2851.9 c 42.51,14 88.34,-9.1 102.35,-51.6 13.99,-42.54 -9.11,-88.36 -51.63,-102.37 -42.51,-13.99 -88.34,9.11 -102.34,51.64 -14.01,42.52 9.1,88.32 51.62,102.33" /><path
         id="path114"
         style="fill:#4fbe37;fill-opacity:1;fill-rule:nonzero;stroke:none"
         d="m 337.609,1505.73 c -100.546,21.25 -164.816,120.02 -143.57,220.56 21.266,100.56 120.004,164.82 220.563,143.58 100.546,-21.28 164.832,-120.02 143.539,-220.55 C 536.91,1548.76 438.145,1484.49 337.609,1505.73" /><path
         id="path116"
         style="fill:#4fbe37;fill-opacity:1;fill-rule:nonzero;stroke:none"
         d="m 160.238,1489.05 c 105.879,19.13 207.246,-51.23 226.383,-157.1 C 405.723,1226.03 335.395,1124.7 229.496,1105.54 123.598,1086.44 22.2422,1156.78 3.14453,1262.68 -16.0117,1368.56 54.332,1469.93 160.238,1489.05" /><path
         id="path118"
         style="fill:#4fbe37;fill-opacity:1;fill-rule:nonzero;stroke:none"
         d="M 287.383,806.09 C 221,775.5 142.395,804.488 111.797,870.859 c -30.6056,66.371 -1.609,144.981 64.738,175.591 66.375,30.62 145.004,1.61 175.586,-64.759 30.625,-66.371 1.621,-144.98 -64.738,-175.601" /><path
         id="path120"
         style="fill:#4fbe37;fill-opacity:1;fill-rule:nonzero;stroke:none"
         d="m 385.684,717.648 c -27.106,22.704 -30.68,63.063 -7.996,90.161 22.699,27.101 63.054,30.66 90.16,7.992 27.097,-22.711 30.672,-63.063 7.972,-90.16 -22.675,-27.11 -63.035,-30.692 -90.136,-7.993" /></g></g></svg>